<?xml version="1.0" encoding="utf-8"?>
<!-- Generator: Adobe Illustrator 25.4.1, SVG Export Plug-In . SVG Version: 6.00 Build 0)  -->
<svg version="1.1" id="Warstwa_1" xmlns="http://www.w3.org/2000/svg" xmlns:xlink="http://www.w3.org/1999/xlink" x="0px" y="0px"
	 viewBox="0 0 790 320" style="enable-background:new 0 0 790 320;" xml:space="preserve">
<style type="text/css">
	.st0{fill:#96C84B;}
	.st1{fill:#FFFFFF;}
	.st2{fill:#CCCCCC;}
	.st3{fill:#FAB90F;}
	.st4{fill:#44C3D4;}
	.st5{fill:#9E9E9E;}
	.st6{fill-rule:evenodd;clip-rule:evenodd;fill:#9E9E9E;}
</style>
<g>
	<path class="st0" d="M112.5,80.2h-100c-5.5,0-10-4.5-10-10v-40c0-5.5,4.5-10,10-10h100c5.5,0,10,4.5,10,10v40
		C122.5,75.7,118,80.2,112.5,80.2z"/>
	<g>
		<path class="st1" d="M31.5,49.2c0,1.6-0.5,2.9-1.4,3.8c-0.9,0.9-2.2,1.3-4,1.3h-2.8v-10h3.1c1.6,0,2.8,0.4,3.7,1.3
			S31.5,47.7,31.5,49.2z M29.8,49.3c0-2.4-1.1-3.6-3.4-3.6H25V53h1.2C28.5,53,29.8,51.7,29.8,49.3z"/>
		<path class="st1" d="M38.2,54.3l-0.3-1.1h-0.1c-0.4,0.5-0.7,0.8-1.1,0.9c-0.4,0.2-0.8,0.2-1.4,0.2c-0.7,0-1.3-0.2-1.7-0.6
			S33,52.7,33,52c0-0.8,0.3-1.4,0.9-1.8s1.5-0.6,2.6-0.6h1.3v-0.4c0-0.5-0.1-0.8-0.3-1.1c-0.2-0.2-0.6-0.4-1-0.4s-0.8,0.1-1.1,0.2
			s-0.7,0.2-1,0.4l-0.5-1.1c0.4-0.2,0.9-0.4,1.3-0.5c0.5-0.1,0.9-0.2,1.4-0.2c1,0,1.7,0.2,2.2,0.6s0.7,1.1,0.7,2v5.1L38.2,54.3
			L38.2,54.3z M35.8,53.2c0.6,0,1.1-0.2,1.4-0.5c0.4-0.3,0.5-0.8,0.5-1.4v-0.7h-1c-0.8,0-1.3,0.2-1.7,0.4c-0.3,0.2-0.5,0.6-0.5,1
			c0,0.3,0.1,0.6,0.3,0.8C35.1,53.1,35.4,53.2,35.8,53.2z"/>
		<path class="st1" d="M44.4,53.2c0.4,0,0.8-0.1,1.2-0.2v1.2c-0.2,0.1-0.4,0.1-0.7,0.2c-0.3,0.1-0.6,0.1-0.9,0.1
			c-1.5,0-2.3-0.8-2.3-2.4V48h-1v-0.7l1.1-0.6l0.5-1.6h1v1.7h2.2V48h-2.2v4c0,0.4,0.1,0.7,0.3,0.9C43.8,53.1,44.1,53.2,44.4,53.2z"
			/>
		<path class="st1" d="M51.8,54.3l-0.3-1h-0.1c-0.4,0.5-0.7,0.8-1.1,0.9c-0.3,0.2-0.8,0.3-1.4,0.3c-0.7,0-1.3-0.2-1.7-0.6
			s-0.6-1-0.6-1.7c0-0.8,0.3-1.4,0.9-1.8s1.5-0.6,2.6-0.6h1.3v-0.4c0-0.5-0.1-0.8-0.3-1.1c-0.2-0.2-0.6-0.4-1-0.4S49.3,48,49,48.1
			s-0.7,0.2-1,0.4l-0.5-1.1c0.4-0.2,0.9-0.4,1.3-0.5c0.5-0.1,0.9-0.2,1.4-0.2c1,0,1.7,0.2,2.2,0.6s0.7,1.1,0.7,2v5.1h-1.3V54.3z
			 M49.4,53.2c0.6,0,1.1-0.2,1.4-0.5c0.4-0.3,0.5-0.8,0.5-1.4v-0.7h-1c-0.8,0-1.3,0.2-1.7,0.4c-0.3,0.2-0.5,0.6-0.5,1
			c0,0.3,0.1,0.6,0.3,0.8C48.7,53.1,49,53.2,49.4,53.2z"/>
		<path class="st1" d="M63.9,52.2c0,0.7-0.3,1.3-0.8,1.7s-1.3,0.6-2.3,0.6S59,54.3,58.4,54v-1.4c0.9,0.4,1.7,0.6,2.5,0.6
			c1,0,1.5-0.3,1.5-0.9c0-0.2-0.1-0.4-0.2-0.5s-0.3-0.3-0.5-0.4s-0.6-0.3-1-0.5c-0.9-0.3-1.5-0.7-1.8-1s-0.5-0.8-0.5-1.3
			c0-0.6,0.3-1.1,0.8-1.5s1.2-0.5,2.1-0.5c0.9,0,1.7,0.2,2.5,0.5l-0.5,1.2c-0.8-0.3-1.5-0.5-2.1-0.5c-0.8,0-1.3,0.2-1.3,0.7
			c0,0.2,0.1,0.4,0.3,0.6s0.7,0.4,1.4,0.7c0.6,0.2,1.1,0.5,1.4,0.7s0.5,0.4,0.6,0.7C63.8,51.5,63.9,51.8,63.9,52.2z"/>
		<path class="st1" d="M72.4,50.5c0,1.2-0.3,2.2-1,2.9s-1.5,1-2.6,1c-0.7,0-1.3-0.2-1.9-0.5s-1-0.8-1.3-1.4
			c-0.3-0.6-0.4-1.3-0.4-2.1c0-1.2,0.3-2.2,0.9-2.9c0.6-0.7,1.5-1,2.7-1c1.1,0,2,0.4,2.6,1.1C72,48.4,72.4,49.3,72.4,50.5z
			 M66.9,50.5c0,1.7,0.6,2.6,1.9,2.6s1.9-0.9,1.9-2.6c0-1.7-0.6-2.6-1.9-2.6c-0.7,0-1.2,0.2-1.5,0.7S66.9,49.7,66.9,50.5z"/>
		<path class="st1" d="M79.5,54.3l-0.2-1h-0.1c-0.2,0.4-0.5,0.6-1,0.8s-0.8,0.4-1.3,0.4c-0.9,0-1.6-0.2-2.1-0.7s-0.7-1.1-0.7-2.1
			v-4.9h1.6v4.7c0,0.6,0.1,1,0.4,1.3c0.2,0.3,0.6,0.4,1.1,0.4c0.7,0,1.2-0.2,1.5-0.6c0.3-0.4,0.5-1.1,0.5-2v-3.8h1.6v7.6h-1.3V54.3z
			"/>
		<path class="st1" d="M86.9,46.6c0.3,0,0.6,0,0.8,0.1l-0.2,1.5c-0.2-0.1-0.5-0.1-0.7-0.1c-0.6,0-1.2,0.2-1.6,0.6s-0.6,1-0.6,1.6v4
			H83v-7.6h1.3l0.2,1.3h0.1c0.3-0.5,0.6-0.8,1-1.1S86.5,46.6,86.9,46.6z"/>
		<path class="st1" d="M92.2,54.5c-1.1,0-2-0.3-2.6-1s-0.9-1.6-0.9-2.9c0-1.3,0.3-2.2,0.9-2.9s1.5-1,2.7-1c0.8,0,1.5,0.1,2.2,0.4
			L94,48.4c-0.7-0.3-1.2-0.4-1.7-0.4c-1.3,0-2,0.9-2,2.6c0,0.8,0.2,1.5,0.5,1.9s0.8,0.6,1.4,0.6c0.7,0,1.4-0.2,2-0.5V54
			c-0.3,0.2-0.6,0.3-0.9,0.4S92.6,54.5,92.2,54.5z"/>
		<path class="st1" d="M99.4,54.5c-1.2,0-2.1-0.3-2.8-1c-0.7-0.7-1-1.6-1-2.8s0.3-2.2,0.9-2.9s1.5-1.1,2.5-1.1s1.8,0.3,2.4,0.9
			s0.9,1.4,0.9,2.5V51h-5c0,0.7,0.2,1.3,0.6,1.7s0.9,0.6,1.6,0.6c0.4,0,0.9,0,1.2-0.1c0.4-0.1,0.8-0.2,1.2-0.4v1.3
			c-0.4,0.2-0.8,0.3-1.2,0.4S99.9,54.5,99.4,54.5z M99.1,47.9c-0.5,0-0.9,0.2-1.2,0.5s-0.5,0.8-0.6,1.4h3.4c0-0.6-0.2-1.1-0.5-1.4
			C100,48,99.6,47.9,99.1,47.9z"/>
	</g>
</g>
<g>
	<rect x="353.1" y="34.7" class="st2" width="14.1" height="1"/>
	<rect x="277.8" y="304.7" class="st2" width="14.1" height="1"/>
	<rect x="362.6" y="304.7" class="st2" width="14.1" height="1"/>
	<rect x="296.5" y="34.7" class="st2" width="14.1" height="1"/>
	<rect x="381.3" y="34.7" class="st2" width="14.1" height="1"/>
	<rect x="324.8" y="34.7" class="st2" width="14.1" height="1"/>
	<rect x="306.1" y="304.7" class="st2" width="14.1" height="1"/>
	<rect x="494.4" y="34.7" class="st2" width="14.1" height="1"/>
	<rect x="447.4" y="304.7" class="st2" width="14.1" height="1"/>
	<rect x="466.1" y="34.7" class="st2" width="14.1" height="1"/>
	<rect x="390.8" y="304.7" class="st2" width="14.1" height="1"/>
	<rect x="437.8" y="34.7" class="st2" width="14.1" height="1"/>
	<rect x="419.1" y="304.7" class="st2" width="14.1" height="1"/>
	<rect x="409.6" y="34.7" class="st2" width="14.1" height="1"/>
	<rect x="334.3" y="304.7" class="st2" width="14.1" height="1"/>
	<rect x="211.7" y="34.7" class="st2" width="14.1" height="1"/>
	<rect x="182" y="210.2" class="st2" width="1" height="0.1"/>
	<path class="st2" d="M197.6,35.7l0-1c-4.9,0-9.6,2.4-12.5,6.4l0.8,0.6C188.6,37.9,193,35.7,197.6,35.7z"/>
	<rect x="182" y="54.8" class="st2" width="1" height="14.1"/>
	<rect x="240" y="34.7" class="st2" width="14.1" height="1"/>
	<rect x="182" y="252.7" class="st2" width="1" height="14.1"/>
	<rect x="268.3" y="34.7" class="st2" width="14.1" height="1"/>
	<rect x="182" y="224.4" class="st2" width="1" height="14.1"/>
	<rect x="221.3" y="304.7" class="st2" width="14.1" height="1"/>
	<rect x="249.5" y="304.7" class="st2" width="14.1" height="1"/>
	<path class="st2" d="M193.2,304l-0.3,1c1.5,0.5,3.1,0.7,4.7,0.7h9.5v-1h-9.5C196.1,304.7,194.6,304.5,193.2,304z"/>
	<path class="st2" d="M183,281h-1v9.1c0,1.7,0.3,3.4,0.8,5.1l0.9-0.3c-0.5-1.5-0.8-3.1-0.8-4.7V281z"/>
	<rect x="182" y="83.1" class="st2" width="1" height="14.1"/>
	<rect x="182" y="111.4" class="st2" width="1" height="14.1"/>
	<rect x="475.6" y="304.7" class="st2" width="14.1" height="1"/>
	<rect x="787.1" y="228.9" class="st2" width="1" height="14.1"/>
	<path class="st2" d="M787.2,45.2c-1.6-4.7-5.4-8.3-10.1-9.8l-0.3,1c4.4,1.4,8,4.8,9.5,9.1L787.2,45.2z"/>
	<rect x="503.9" y="304.7" class="st2" width="14.1" height="1"/>
	<path class="st2" d="M787.1,290.2c0,3.1-1,6-2.8,8.5l0.8,0.6c1.9-2.6,3-5.8,3-9.1v-4.7h-1V290.2z"/>
	<rect x="720.5" y="34.7" class="st2" width="14.1" height="1"/>
	<rect x="730" y="304.7" class="st2" width="14.1" height="1"/>
	<rect x="748.7" y="34.7" class="st2" width="14.1" height="1"/>
	<polygon class="st2" points="758.3,304.7 758.3,305.7 772.4,305.7 772.6,305.7 772.6,304.7 	"/>
	<rect x="787.1" y="87.6" class="st2" width="1" height="14.1"/>
	<rect x="787.1" y="200.7" class="st2" width="1" height="14.1"/>
	<rect x="787.1" y="115.9" class="st2" width="1" height="14.1"/>
	<rect x="787.1" y="59.4" class="st2" width="1" height="14.1"/>
	<rect x="787.1" y="172.4" class="st2" width="1" height="14.1"/>
	<rect x="787.1" y="144.1" class="st2" width="1" height="14.1"/>
	<rect x="787.1" y="257.2" class="st2" width="1" height="14.1"/>
	<rect x="579.2" y="34.7" class="st2" width="14.1" height="1"/>
	<rect x="560.4" y="304.7" class="st2" width="14.1" height="1"/>
	<rect x="588.7" y="304.7" class="st2" width="14.1" height="1"/>
	<rect x="550.9" y="34.7" class="st2" width="14.1" height="1"/>
	<rect x="607.4" y="34.7" class="st2" width="14.1" height="1"/>
	<rect x="522.6" y="34.7" class="st2" width="14.1" height="1"/>
	<rect x="532.2" y="304.7" class="st2" width="14.1" height="1"/>
	<rect x="645.2" y="304.7" class="st2" width="14.1" height="1"/>
	<rect x="673.5" y="304.7" class="st2" width="14.1" height="1"/>
	<rect x="663.9" y="34.7" class="st2" width="14.1" height="1"/>
	<rect x="692.2" y="34.7" class="st2" width="14.1" height="1"/>
	<rect x="701.7" y="304.7" class="st2" width="14.1" height="1"/>
	<rect x="635.7" y="34.7" class="st2" width="14.1" height="1"/>
	<rect x="617" y="304.7" class="st2" width="14.1" height="1"/>
</g>
<g>
	<rect x="327.5" y="80" class="st3" width="7" height="0.5"/>
	<rect x="369.6" y="80" class="st3" width="7" height="0.5"/>
	<rect x="378.1" y="260" class="st3" width="7" height="0.5"/>
	<rect x="392.1" y="260" class="st3" width="7" height="0.5"/>
	<rect x="383.6" y="80" class="st3" width="7" height="0.5"/>
	<rect x="364" y="260" class="st3" width="7" height="0.5"/>
	<rect x="341.5" y="80" class="st3" width="7" height="0.5"/>
	<rect x="322" y="260" class="st3" width="7" height="0.5"/>
	<rect x="350" y="260" class="st3" width="7" height="0.5"/>
	<rect x="397.6" y="80" class="st3" width="7" height="0.5"/>
	<rect x="355.5" y="80" class="st3" width="7" height="0.5"/>
	<rect x="336" y="260" class="st3" width="7" height="0.5"/>
	<rect x="476.2" y="260" class="st3" width="7" height="0.5"/>
	<rect x="453.7" y="80" class="st3" width="7" height="0.5"/>
	<rect x="467.7" y="80" class="st3" width="7" height="0.5"/>
	<rect x="462.2" y="260" class="st3" width="7" height="0.5"/>
	<rect x="439.6" y="80" class="st3" width="7" height="0.5"/>
	<rect x="420.1" y="260" class="st3" width="7" height="0.5"/>
	<rect x="406.1" y="260" class="st3" width="7" height="0.5"/>
	<rect x="411.6" y="80" class="st3" width="7" height="0.5"/>
	<rect x="434.1" y="260" class="st3" width="7" height="0.5"/>
	<rect x="425.6" y="80" class="st3" width="7" height="0.5"/>
	<rect x="448.1" y="260" class="st3" width="7" height="0.5"/>
	<rect x="272.2" y="121.9" class="st3" width="0.5" height="7"/>
	<rect x="272.2" y="149.9" class="st3" width="0.5" height="7"/>
	<rect x="272.2" y="135.9" class="st3" width="0.5" height="7"/>
	<rect x="272.2" y="178" class="st3" width="0.5" height="7"/>
	<rect x="272.2" y="163.9" class="st3" width="0.5" height="7"/>
	<rect x="272.2" y="93.9" class="st3" width="0.5" height="7"/>
	<rect x="523.7" y="80" class="st3" width="7" height="0.5"/>
	<rect x="509.7" y="80" class="st3" width="7" height="0.5"/>
	<rect x="272.2" y="192" class="st3" width="0.5" height="7"/>
	<rect x="495.7" y="80" class="st3" width="7" height="0.5"/>
	<rect x="272.2" y="107.9" class="st3" width="0.5" height="7"/>
	<rect x="299.5" y="80" class="st3" width="7" height="0.5"/>
	<path class="st3" d="M280.2,258.8l-0.2,0.5c1.7,0.8,3.6,1.2,5.5,1.2h1.4V260h-1.4C283.7,260,281.9,259.6,280.2,258.8z"/>
	<rect x="294" y="260" class="st3" width="7" height="0.5"/>
	<polygon class="st3" points="285.5,80.5 292.5,80.5 292.5,80 285.5,80 	"/>
	<rect x="272.2" y="206" class="st3" width="0.5" height="7"/>
	<rect x="313.5" y="80" class="st3" width="7" height="0.5"/>
	<rect x="308" y="260" class="st3" width="7" height="0.5"/>
	<rect x="272.2" y="234" class="st3" width="0.5" height="7"/>
	<rect x="272.2" y="220" class="st3" width="0.5" height="7"/>
	<path class="st3" d="M272.3,248.1c0.2,2.4,1,4.7,2.3,6.7l0.4-0.3c-1.3-1.9-2.1-4.1-2.2-6.4L272.3,248.1z"/>
	<path class="st3" d="M273.8,87l0.4,0.2c1.1-2,2.7-3.7,4.7-4.9l-0.3-0.4C276.6,83.1,274.9,84.9,273.8,87z"/>
	<rect x="551.8" y="80" class="st3" width="7" height="0.5"/>
	<rect x="742.5" y="260" class="st3" width="7.1" height="0.5"/>
	<path class="st3" d="M748,80v0.5h1.5c1.8,0,3.6,0.4,5.3,1.1l0.2-0.5c-1.7-0.8-3.6-1.2-5.5-1.2H748z"/>
	<path class="st3" d="M760.4,85.7l-0.4,0.3c1.3,1.9,2.1,4.1,2.3,6.4l0.5,0C762.6,89.9,761.7,87.6,760.4,85.7z"/>
	<rect x="734" y="80" class="st3" width="7" height="0.5"/>
	<path class="st3" d="M756.1,258.1l0.3,0.4c2-1.2,3.7-3,4.8-5.1l-0.4-0.2C759.7,255.2,758.1,256.9,756.1,258.1z"/>
	<rect x="700.4" y="260" class="st3" width="7" height="0.5"/>
	<rect x="762.2" y="239.5" class="st3" width="0.5" height="7"/>
	<rect x="728.5" y="260" class="st3" width="7" height="0.5"/>
	<rect x="691.9" y="80" class="st3" width="7" height="0.5"/>
	<rect x="720" y="80" class="st3" width="7" height="0.5"/>
	<rect x="714.5" y="260" class="st3" width="7" height="0.5"/>
	<rect x="706" y="80" class="st3" width="7" height="0.5"/>
	<rect x="762.2" y="155.4" class="st3" width="0.5" height="7"/>
	<rect x="762.2" y="127.4" class="st3" width="0.5" height="7"/>
	<rect x="762.2" y="141.4" class="st3" width="0.5" height="7"/>
	<rect x="762.2" y="99.3" class="st3" width="0.5" height="7"/>
	<rect x="762.2" y="113.3" class="st3" width="0.5" height="7"/>
	<rect x="762.2" y="211.5" class="st3" width="0.5" height="7"/>
	<rect x="762.2" y="225.5" class="st3" width="0.5" height="7"/>
	<rect x="762.2" y="197.4" class="st3" width="0.5" height="7"/>
	<rect x="762.2" y="183.4" class="st3" width="0.5" height="7"/>
	<rect x="762.2" y="169.4" class="st3" width="0.5" height="7"/>
	<rect x="593.8" y="80" class="st3" width="7" height="0.5"/>
	<rect x="579.8" y="80" class="st3" width="7" height="0.5"/>
	<rect x="588.3" y="260" class="st3" width="7" height="0.5"/>
	<rect x="602.3" y="260" class="st3" width="7" height="0.5"/>
	<rect x="481.7" y="80" class="st3" width="7" height="0.5"/>
	<rect x="686.4" y="260" class="st3" width="7" height="0.5"/>
	<rect x="607.8" y="80" class="st3" width="7" height="0.5"/>
	<rect x="490.2" y="260" class="st3" width="0.3" height="0.5"/>
	<rect x="537.8" y="80" class="st3" width="7" height="0.5"/>
	<rect x="546.3" y="260" class="st3" width="7" height="0.5"/>
	<rect x="560.3" y="260" class="st3" width="7" height="0.5"/>
	<rect x="565.8" y="80" class="st3" width="7" height="0.5"/>
	<rect x="574.3" y="260" class="st3" width="7" height="0.5"/>
	<rect x="649.9" y="80" class="st3" width="7" height="0.5"/>
	<rect x="663.9" y="80" class="st3" width="7" height="0.5"/>
	<rect x="658.4" y="260" class="st3" width="7" height="0.5"/>
	<rect x="677.9" y="80" class="st3" width="7" height="0.5"/>
	<rect x="672.4" y="260" class="st3" width="7" height="0.5"/>
	<rect x="621.9" y="80" class="st3" width="7" height="0.5"/>
	<rect x="644.4" y="260" class="st3" width="7" height="0.5"/>
	<rect x="630.4" y="260" class="st3" width="7" height="0.5"/>
	<rect x="616.3" y="260" class="st3" width="7" height="0.5"/>
	<rect x="635.9" y="80" class="st3" width="7" height="0.5"/>
</g>
<g>
	<path class="st4" d="M232.5,200.2h-100c-5.5,0-10-4.5-10-10v-40c0-5.5,4.5-10,10-10h100c5.5,0,10,4.5,10,10v40
		C242.5,195.7,238,200.2,232.5,200.2z"/>
	<g>
		<path class="st1" d="M158.4,168.9h3.7v5c-0.6,0.2-1.2,0.3-1.7,0.4s-1.2,0.1-1.8,0.1c-1.5,0-2.7-0.4-3.5-1.3
			c-0.8-0.9-1.2-2.2-1.2-3.8s0.5-2.9,1.4-3.8c0.9-0.9,2.2-1.4,3.8-1.4c1,0,2,0.2,3,0.6l-0.6,1.4c-0.8-0.4-1.6-0.6-2.4-0.6
			c-1.1,0-1.9,0.3-2.5,1s-0.9,1.6-0.9,2.7c0,1.2,0.3,2.1,0.8,2.8c0.6,0.6,1.4,1,2.4,1c0.5,0,1.1-0.1,1.7-0.2v-2.6h-2.1L158.4,168.9
			L158.4,168.9z"/>
		<path class="st1" d="M169.1,174.3l-0.3-1.1h-0.1c-0.4,0.5-0.7,0.8-1.1,0.9c-0.4,0.2-0.8,0.2-1.4,0.2c-0.7,0-1.3-0.2-1.7-0.6
			s-0.6-1-0.6-1.7c0-0.8,0.3-1.4,0.9-1.8s1.5-0.6,2.6-0.6h1.3v-0.4c0-0.5-0.1-0.8-0.3-1.1c-0.2-0.2-0.6-0.4-1-0.4s-0.8,0.1-1.1,0.2
			s-0.7,0.2-1,0.4l-0.5-1.1c0.4-0.2,0.9-0.4,1.3-0.5c0.5-0.1,0.9-0.2,1.4-0.2c1,0,1.7,0.2,2.2,0.6s0.7,1.1,0.7,2v5.1h-1.3V174.3z
			 M166.7,173.2c0.6,0,1.1-0.2,1.4-0.5c0.4-0.3,0.5-0.8,0.5-1.4v-0.7h-1c-0.8,0-1.3,0.2-1.7,0.4c-0.3,0.2-0.5,0.6-0.5,1
			c0,0.3,0.1,0.6,0.3,0.8C166,173.1,166.3,173.2,166.7,173.2z"/>
		<path class="st1" d="M175.3,173.2c0.4,0,0.8-0.1,1.2-0.2v1.2c-0.2,0.1-0.4,0.1-0.7,0.2c-0.3,0.1-0.6,0.1-0.9,0.1
			c-1.5,0-2.3-0.8-2.3-2.4V168h-1v-0.7l1.1-0.6l0.5-1.6h1v1.7h2.2v1.2h-2.2v4c0,0.4,0.1,0.7,0.3,0.9
			C174.7,173.1,175,173.2,175.3,173.2z"/>
		<path class="st1" d="M181.3,174.5c-1.2,0-2.1-0.3-2.8-1s-1-1.6-1-2.8s0.3-2.2,0.9-2.9s1.5-1.1,2.5-1.1s1.8,0.3,2.4,0.9
			s0.9,1.4,0.9,2.5v0.9h-5c0,0.7,0.2,1.3,0.6,1.7c0.4,0.4,0.9,0.6,1.6,0.6c0.4,0,0.9,0,1.2-0.1c0.4-0.1,0.8-0.2,1.2-0.4v1.3
			c-0.4,0.2-0.8,0.3-1.2,0.4S181.8,174.5,181.3,174.5z M181,167.9c-0.5,0-0.9,0.2-1.2,0.5s-0.5,0.8-0.6,1.4h3.4
			c0-0.6-0.2-1.1-0.5-1.4C181.9,168,181.5,167.9,181,167.9z"/>
		<path class="st1" d="M192.2,174.3l-1-3.5c-0.1-0.4-0.3-1.2-0.6-2.6h-0.1c-0.3,1.2-0.5,2.1-0.6,2.6l-1,3.5h-1.8l-2.1-7.6h1.6l1,3.7
			c0.2,0.9,0.4,1.7,0.5,2.4l0,0c0-0.3,0.1-0.7,0.2-1.1c0.1-0.4,0.2-0.8,0.2-1l1.1-4h1.8l1.1,4c0.1,0.2,0.2,0.6,0.3,1
			s0.2,0.8,0.2,1.1h0.1c0.1-0.6,0.2-1.3,0.5-2.4l1-3.7h1.6l-2.1,7.6H192.2z"/>
		<path class="st1" d="M202.2,174.3l-0.3-1.1h-0.1c-0.4,0.5-0.7,0.8-1.1,0.9c-0.4,0.2-0.8,0.2-1.4,0.2c-0.7,0-1.3-0.2-1.7-0.6
			s-0.6-1-0.6-1.7c0-0.8,0.3-1.4,0.9-1.8s1.5-0.6,2.6-0.6h1.3v-0.4c0-0.5-0.1-0.8-0.3-1.1c-0.2-0.2-0.6-0.4-1-0.4s-0.8,0.1-1.1,0.2
			s-0.7,0.2-1,0.4l-0.5-1.1c0.4-0.2,0.9-0.4,1.3-0.5c0.5-0.1,0.9-0.2,1.4-0.2c1,0,1.7,0.2,2.2,0.6s0.7,1.1,0.7,2v5.1h-1.3V174.3z
			 M199.8,173.2c0.6,0,1.1-0.2,1.4-0.5c0.4-0.3,0.5-0.8,0.5-1.4v-0.7h-1c-0.8,0-1.3,0.2-1.7,0.4c-0.3,0.2-0.5,0.6-0.5,1
			c0,0.3,0.1,0.6,0.3,0.8C199.1,173.1,199.4,173.2,199.8,173.2z"/>
		<path class="st1" d="M204.5,166.8h1.8l1.5,4.3c0.2,0.6,0.4,1.2,0.5,1.7h0.1c0-0.3,0.1-0.6,0.2-0.9c0.1-0.4,0.7-2.1,1.7-5.1h1.7
			l-3.2,8.6c-0.6,1.6-1.6,2.4-2.9,2.4c-0.4,0-0.7,0-1-0.1v-1.3c0.2,0.1,0.5,0.1,0.8,0.1c0.8,0,1.3-0.4,1.6-1.3l0.3-0.7L204.5,166.8z
			"/>
	</g>
</g>
<g>
	<path class="st3" d="M375,192.7h-75c-4.1,0-7.5-3.4-7.5-7.5v-30c0-4.1,3.4-7.5,7.5-7.5h75c4.1,0,7.5,3.4,7.5,7.5v30
		C382.5,189.4,379.1,192.7,375,192.7z"/>
	<g>
		<path class="st1" d="M322.1,164.3h3c1.4,0,2.4,0.2,3,0.6s0.9,1,0.9,1.9c0,0.6-0.2,1.1-0.5,1.5s-0.7,0.6-1.3,0.7v0.1
			c0.7,0.1,1.2,0.4,1.5,0.8c0.3,0.4,0.5,0.9,0.5,1.6c0,0.9-0.3,1.6-0.9,2.1s-1.5,0.8-2.6,0.8h-3.6V164.3z M323.8,168.5h1.6
			c0.7,0,1.2-0.1,1.5-0.3s0.5-0.6,0.5-1.1s-0.2-0.8-0.5-1s-0.9-0.3-1.6-0.3h-1.4v2.7H323.8z M323.8,169.8v3.2h1.7
			c0.7,0,1.2-0.1,1.5-0.4c0.3-0.3,0.5-0.7,0.5-1.2s-0.2-0.9-0.5-1.2s-0.9-0.4-1.6-0.4L323.8,169.8L323.8,169.8z"/>
		<path class="st1" d="M334.5,174.5c-1.2,0-2.1-0.3-2.8-1c-0.7-0.7-1-1.6-1-2.8s0.3-2.2,0.9-2.9s1.5-1.1,2.5-1.1s1.8,0.3,2.4,0.9
			s0.9,1.4,0.9,2.5v0.9h-5c0,0.7,0.2,1.3,0.6,1.7s0.9,0.6,1.6,0.6c0.4,0,0.9,0,1.2-0.1c0.4-0.1,0.8-0.2,1.2-0.4v1.3
			c-0.4,0.2-0.8,0.3-1.2,0.4S335,174.5,334.5,174.5z M334.2,167.9c-0.5,0-0.9,0.2-1.2,0.5s-0.5,0.8-0.6,1.4h3.4
			c0-0.6-0.2-1.1-0.5-1.4C335.1,168,334.7,167.9,334.2,167.9z"/>
		<path class="st1" d="M342.6,174.5c-1.2,0-2.1-0.3-2.8-1c-0.7-0.7-1-1.6-1-2.8s0.3-2.2,0.9-2.9s1.5-1.1,2.5-1.1s1.8,0.3,2.4,0.9
			s0.9,1.4,0.9,2.5v0.9h-5c0,0.7,0.2,1.3,0.6,1.7s0.9,0.6,1.6,0.6c0.4,0,0.9,0,1.2-0.1c0.4-0.1,0.8-0.2,1.2-0.4v1.3
			c-0.4,0.2-0.8,0.3-1.2,0.4S343.1,174.5,342.6,174.5z M342.3,167.9c-0.5,0-0.9,0.2-1.2,0.5s-0.5,0.8-0.6,1.4h3.4
			c0-0.6-0.2-1.1-0.5-1.4C343.2,168,342.8,167.9,342.3,167.9z"/>
		<path class="st1" d="M351.5,174.3h-1.6v-6.5c0-0.8,0-1.4,0.1-1.8c-0.1,0.1-0.2,0.2-0.4,0.4s-0.7,0.6-1.5,1.3l-0.8-1l2.9-2.3h1.3
			V174.3z"/>
	</g>
</g>
<g>
	<path class="st3" d="M735,192.7h-75c-4.1,0-7.5-3.4-7.5-7.5v-30c0-4.1,3.4-7.5,7.5-7.5h75c4.1,0,7.5,3.4,7.5,7.5v30
		C742.5,189.4,739.1,192.7,735,192.7z"/>
	<g>
		<path class="st1" d="M682.1,164.3h3c1.4,0,2.4,0.2,3,0.6c0.6,0.4,0.9,1,0.9,1.9c0,0.6-0.2,1.1-0.5,1.5s-0.7,0.6-1.3,0.7v0.1
			c0.7,0.1,1.2,0.4,1.5,0.8c0.3,0.4,0.5,0.9,0.5,1.6c0,0.9-0.3,1.6-0.9,2.1c-0.6,0.5-1.5,0.8-2.6,0.8h-3.6L682.1,164.3L682.1,164.3z
			 M683.8,168.5h1.6c0.7,0,1.2-0.1,1.5-0.3s0.5-0.6,0.5-1.1s-0.2-0.8-0.5-1s-0.9-0.3-1.6-0.3h-1.4L683.8,168.5L683.8,168.5z
			 M683.8,169.8v3.2h1.7c0.7,0,1.2-0.1,1.5-0.4c0.3-0.3,0.5-0.7,0.5-1.2s-0.2-0.9-0.5-1.2s-0.9-0.4-1.6-0.4L683.8,169.8L683.8,169.8
			z"/>
		<path class="st1" d="M694.5,174.5c-1.2,0-2.1-0.3-2.8-1s-1-1.6-1-2.8s0.3-2.2,0.9-2.9s1.5-1.1,2.5-1.1s1.8,0.3,2.4,0.9
			c0.6,0.6,0.9,1.4,0.9,2.5v0.9h-5c0,0.7,0.2,1.3,0.6,1.7c0.4,0.4,0.9,0.6,1.6,0.6c0.4,0,0.9,0,1.2-0.1c0.4-0.1,0.8-0.2,1.2-0.4v1.3
			c-0.4,0.2-0.8,0.3-1.2,0.4C695.5,174.4,695,174.5,694.5,174.5z M694.2,167.9c-0.5,0-0.9,0.2-1.2,0.5s-0.5,0.8-0.5,1.4h3.4
			c0-0.6-0.2-1.1-0.5-1.4C695.1,168,694.7,167.9,694.2,167.9z"/>
		<path class="st1" d="M702.6,174.5c-1.2,0-2.1-0.3-2.8-1s-1-1.6-1-2.8s0.3-2.2,0.9-2.9s1.5-1.1,2.5-1.1s1.8,0.3,2.4,0.9
			c0.6,0.6,0.9,1.4,0.9,2.5v0.9h-5c0,0.7,0.2,1.3,0.6,1.7c0.4,0.4,0.9,0.6,1.6,0.6c0.4,0,0.9,0,1.2-0.1c0.4-0.1,0.8-0.2,1.2-0.4v1.3
			c-0.4,0.2-0.8,0.3-1.2,0.4C703.5,174.4,703.1,174.5,702.6,174.5z M702.3,167.9c-0.5,0-0.9,0.2-1.2,0.5s-0.5,0.8-0.5,1.4h3.4
			c0-0.6-0.2-1.1-0.5-1.4C703.2,168,702.8,167.9,702.3,167.9z"/>
		<path class="st1" d="M713.9,172.2h-1.3v2.2H711v-2.2h-4.5V171l4.6-6.6h1.6v6.5h1.3L713.9,172.2L713.9,172.2z M711,170.8v-2.5
			c0-0.9,0-1.6,0.1-2.2H711c-0.1,0.3-0.3,0.7-0.6,1.1l-2.5,3.6L711,170.8L711,170.8z"/>
	</g>
</g>
<g>
	<path class="st3" d="M495,147.7h-75c-4.1,0-7.5-3.4-7.5-7.5v-30c0-4.1,3.4-7.5,7.5-7.5h75c4.1,0,7.5,3.4,7.5,7.5v30
		C502.5,144.4,499.1,147.7,495,147.7z"/>
	<g>
		<path class="st1" d="M438.1,119.3h3c1.4,0,2.4,0.2,3,0.6s0.9,1,0.9,1.9c0,0.6-0.2,1.1-0.5,1.5s-0.7,0.6-1.3,0.7v0.1
			c0.7,0.1,1.2,0.4,1.5,0.8s0.5,0.9,0.5,1.6c0,0.9-0.3,1.6-0.9,2.1s-1.5,0.8-2.6,0.8h-3.6V119.3z M439.7,123.5h1.6
			c0.7,0,1.2-0.1,1.5-0.3c0.3-0.2,0.5-0.6,0.5-1.1s-0.2-0.8-0.5-1s-0.9-0.3-1.6-0.3h-1.4v2.7H439.7z M439.7,124.8v3.2h1.7
			c0.7,0,1.2-0.1,1.5-0.4s0.5-0.7,0.5-1.2s-0.2-0.9-0.5-1.2s-0.9-0.4-1.6-0.4H439.7z"/>
		<path class="st1" d="M450.4,129.5c-1.2,0-2.1-0.3-2.8-1c-0.7-0.7-1-1.6-1-2.8c0-1.2,0.3-2.2,0.9-2.9s1.5-1.1,2.5-1.1
			s1.8,0.3,2.4,0.9s0.9,1.4,0.9,2.5v0.9h-5c0,0.7,0.2,1.3,0.6,1.7c0.4,0.4,0.9,0.6,1.6,0.6c0.4,0,0.9,0,1.2-0.1
			c0.4-0.1,0.8-0.2,1.2-0.4v1.3c-0.4,0.2-0.8,0.3-1.2,0.4C451.4,129.4,451,129.5,450.4,129.5z M450.2,122.9c-0.5,0-0.9,0.2-1.2,0.5
			s-0.5,0.8-0.5,1.4h3.4c0-0.6-0.2-1.1-0.5-1.4C451.1,123,450.7,122.9,450.2,122.9z"/>
		<path class="st1" d="M458.5,129.5c-1.2,0-2.1-0.3-2.8-1c-0.7-0.7-1-1.6-1-2.8c0-1.2,0.3-2.2,0.9-2.9s1.5-1.1,2.5-1.1
			s1.8,0.3,2.4,0.9s0.9,1.4,0.9,2.5v0.9h-5c0,0.7,0.2,1.3,0.6,1.7c0.4,0.4,0.9,0.6,1.6,0.6c0.4,0,0.9,0,1.2-0.1
			c0.4-0.1,0.8-0.2,1.2-0.4v1.3c-0.4,0.2-0.8,0.3-1.2,0.4C459.5,129.4,459,129.5,458.5,129.5z M458.2,122.9c-0.5,0-0.9,0.2-1.2,0.5
			s-0.5,0.8-0.5,1.4h3.4c0-0.6-0.2-1.1-0.5-1.4C459.1,123,458.7,122.9,458.2,122.9z"/>
		<path class="st1" d="M469.5,129.3h-6.8v-1.2l2.6-2.6c0.8-0.8,1.3-1.3,1.5-1.7c0.2-0.3,0.4-0.6,0.5-0.9s0.2-0.6,0.2-0.9
			c0-0.5-0.1-0.8-0.4-1.1c-0.3-0.3-0.6-0.4-1.1-0.4c-0.4,0-0.8,0.1-1.1,0.2c-0.4,0.1-0.8,0.4-1.2,0.8l-0.9-1.1
			c0.6-0.5,1.1-0.8,1.6-1s1.1-0.3,1.7-0.3c0.9,0,1.7,0.2,2.2,0.7c0.6,0.5,0.8,1.1,0.8,2c0,0.5-0.1,0.9-0.2,1.3
			c-0.2,0.4-0.4,0.8-0.7,1.3c-0.3,0.4-0.9,1-1.7,1.7l-1.7,1.7v0.1h4.7V129.3z"/>
		<path class="st1" d="M476,129.3l-0.3-1.1h-0.1c-0.4,0.5-0.7,0.8-1.1,0.9c-0.4,0.2-0.8,0.2-1.4,0.2c-0.7,0-1.3-0.2-1.7-0.6
			c-0.4-0.4-0.6-1-0.6-1.7c0-0.8,0.3-1.4,0.9-1.8s1.5-0.6,2.6-0.6h1.3v-0.4c0-0.5-0.1-0.8-0.3-1.1c-0.2-0.2-0.6-0.4-1-0.4
			s-0.8,0.1-1.1,0.2s-0.7,0.2-1,0.4l-0.5-1.1c0.4-0.2,0.9-0.4,1.3-0.5c0.5-0.1,0.9-0.2,1.4-0.2c1,0,1.7,0.2,2.2,0.6s0.7,1.1,0.7,2
			v5.1L476,129.3L476,129.3z M473.6,128.2c0.6,0,1.1-0.2,1.4-0.5c0.4-0.3,0.5-0.8,0.5-1.4v-0.7h-1c-0.8,0-1.3,0.2-1.7,0.4
			c-0.3,0.2-0.5,0.6-0.5,1c0,0.3,0.1,0.6,0.3,0.8C472.9,128.1,473.2,128.2,473.6,128.2z"/>
	</g>
</g>
<g>
	<path class="st3" d="M495,237.7h-75c-4.1,0-7.5-3.4-7.5-7.5v-30c0-4.1,3.4-7.5,7.5-7.5h75c4.1,0,7.5,3.4,7.5,7.5v30
		C502.5,234.4,499.1,237.7,495,237.7z"/>
	<g>
		<path class="st1" d="M437.8,209.3h3c1.4,0,2.4,0.2,3,0.6c0.6,0.4,0.9,1,0.9,1.9c0,0.6-0.2,1.1-0.5,1.5s-0.7,0.6-1.3,0.7v0.1
			c0.7,0.1,1.2,0.4,1.5,0.8c0.3,0.4,0.5,0.9,0.5,1.6c0,0.9-0.3,1.6-0.9,2.1s-1.5,0.8-2.6,0.8h-3.6V209.3z M439.4,213.5h1.6
			c0.7,0,1.2-0.1,1.5-0.3s0.5-0.6,0.5-1.1s-0.2-0.8-0.5-1s-0.9-0.3-1.6-0.3h-1.4v2.7H439.4z M439.4,214.8v3.2h1.7
			c0.7,0,1.2-0.1,1.5-0.4c0.3-0.3,0.5-0.7,0.5-1.2s-0.2-0.9-0.5-1.2s-0.9-0.4-1.6-0.4L439.4,214.8L439.4,214.8z"/>
		<path class="st1" d="M450.1,219.5c-1.2,0-2.1-0.3-2.8-1c-0.7-0.7-1-1.6-1-2.8s0.3-2.2,0.9-2.9s1.5-1.1,2.5-1.1s1.8,0.3,2.4,0.9
			c0.6,0.6,0.9,1.4,0.9,2.5v0.9h-5c0,0.7,0.2,1.3,0.6,1.7s0.9,0.6,1.6,0.6c0.4,0,0.9,0,1.2-0.1c0.4-0.1,0.8-0.2,1.2-0.4v1.3
			c-0.4,0.2-0.8,0.3-1.2,0.4C451.1,219.4,450.7,219.5,450.1,219.5z M449.9,212.9c-0.5,0-0.9,0.2-1.2,0.5s-0.5,0.8-0.5,1.4h3.4
			c0-0.6-0.2-1.1-0.5-1.4C450.8,213,450.4,212.9,449.9,212.9z"/>
		<path class="st1" d="M458.2,219.5c-1.2,0-2.1-0.3-2.8-1c-0.7-0.7-1-1.6-1-2.8s0.3-2.2,0.9-2.9s1.5-1.1,2.5-1.1s1.8,0.3,2.4,0.9
			c0.6,0.6,0.9,1.4,0.9,2.5v0.9h-5c0,0.7,0.2,1.3,0.6,1.7s0.9,0.6,1.6,0.6c0.4,0,0.9,0,1.2-0.1c0.4-0.1,0.8-0.2,1.2-0.4v1.3
			c-0.4,0.2-0.8,0.3-1.2,0.4C459.2,219.4,458.7,219.5,458.2,219.5z M457.9,212.9c-0.5,0-0.9,0.2-1.2,0.5s-0.5,0.8-0.5,1.4h3.4
			c0-0.6-0.2-1.1-0.5-1.4C458.8,213,458.4,212.9,457.9,212.9z"/>
		<path class="st1" d="M469.2,219.3h-6.8v-1.2l2.6-2.6c0.8-0.8,1.3-1.3,1.5-1.7c0.2-0.3,0.4-0.6,0.5-0.9c0.1-0.3,0.2-0.6,0.2-0.9
			c0-0.5-0.1-0.8-0.4-1.1s-0.6-0.4-1.1-0.4c-0.4,0-0.8,0.1-1.1,0.2c-0.4,0.1-0.8,0.4-1.2,0.8l-0.9-1c0.6-0.5,1.1-0.8,1.6-1
			s1.1-0.3,1.7-0.3c0.9,0,1.7,0.2,2.2,0.7c0.6,0.5,0.8,1.1,0.8,2c0,0.5-0.1,0.9-0.2,1.3c-0.2,0.4-0.4,0.8-0.7,1.3
			c-0.3,0.4-0.9,1-1.7,1.7l-1.7,1.7v0.1h4.7L469.2,219.3L469.2,219.3z"/>
		<path class="st1" d="M474.8,211.6c0.9,0,1.7,0.3,2.2,1s0.8,1.6,0.8,2.9c0,1.2-0.3,2.2-0.8,2.9s-1.3,1-2.2,1c-1,0-1.7-0.3-2.2-1
			h-0.1l-0.3,0.9H471v-10.6h1.6v2.5c0,0.2,0,0.5,0,0.8c0,0.4,0,0.6,0,0.7h0.1C473.1,212,473.8,211.6,474.8,211.6z M474.4,212.9
			c-0.6,0-1.1,0.2-1.4,0.6c-0.3,0.4-0.4,1-0.4,1.9v0.1c0,0.9,0.1,1.6,0.4,2s0.8,0.6,1.4,0.6s1-0.2,1.3-0.7s0.4-1.1,0.4-2
			C476.2,213.8,475.6,212.9,474.4,212.9z"/>
	</g>
</g>
<g>
	<path class="st3" d="M615,147.7h-75c-4.1,0-7.5-3.4-7.5-7.5v-30c0-4.1,3.4-7.5,7.5-7.5h75c4.1,0,7.5,3.4,7.5,7.5v30
		C622.5,144.4,619.1,147.7,615,147.7z"/>
	<g>
		<path class="st1" d="M558.1,119.3h3c1.4,0,2.4,0.2,3,0.6s0.9,1,0.9,1.9c0,0.6-0.2,1.1-0.5,1.5s-0.7,0.6-1.3,0.7v0.1
			c0.7,0.1,1.2,0.4,1.5,0.8s0.5,0.9,0.5,1.6c0,0.9-0.3,1.6-0.9,2.1c-0.6,0.5-1.5,0.8-2.6,0.8h-3.6L558.1,119.3L558.1,119.3z
			 M559.7,123.5h1.6c0.7,0,1.2-0.1,1.5-0.3c0.3-0.2,0.5-0.6,0.5-1.1s-0.2-0.8-0.5-1s-0.9-0.3-1.6-0.3h-1.4L559.7,123.5L559.7,123.5z
			 M559.7,124.8v3.2h1.7c0.7,0,1.2-0.1,1.5-0.4s0.5-0.7,0.5-1.2s-0.2-0.9-0.5-1.2s-0.9-0.4-1.6-0.4H559.7z"/>
		<path class="st1" d="M570.4,129.5c-1.2,0-2.1-0.3-2.8-1s-1-1.6-1-2.8c0-1.2,0.3-2.2,0.9-2.9s1.5-1.1,2.5-1.1s1.8,0.3,2.4,0.9
			c0.6,0.6,0.9,1.4,0.9,2.5v0.9h-5c0,0.7,0.2,1.3,0.6,1.7c0.4,0.4,0.9,0.6,1.6,0.6c0.4,0,0.9,0,1.2-0.1c0.4-0.1,0.8-0.2,1.2-0.4v1.3
			c-0.4,0.2-0.8,0.3-1.2,0.4C571.4,129.4,571,129.5,570.4,129.5z M570.2,122.9c-0.5,0-0.9,0.2-1.2,0.5s-0.5,0.8-0.5,1.4h3.4
			c0-0.6-0.2-1.1-0.5-1.4C571.1,123,570.7,122.9,570.2,122.9z"/>
		<path class="st1" d="M578.5,129.5c-1.2,0-2.1-0.3-2.8-1s-1-1.6-1-2.8c0-1.2,0.3-2.2,0.9-2.9s1.5-1.1,2.5-1.1s1.8,0.3,2.4,0.9
			c0.6,0.6,0.9,1.4,0.9,2.5v0.9h-5c0,0.7,0.2,1.3,0.6,1.7c0.4,0.4,0.9,0.6,1.6,0.6c0.4,0,0.9,0,1.2-0.1c0.4-0.1,0.8-0.2,1.2-0.4v1.3
			c-0.4,0.2-0.8,0.3-1.2,0.4C579.5,129.4,579,129.5,578.5,129.5z M578.2,122.9c-0.5,0-0.9,0.2-1.2,0.5s-0.5,0.8-0.5,1.4h3.4
			c0-0.6-0.2-1.1-0.5-1.4C579.1,123,578.7,122.9,578.2,122.9z"/>
		<path class="st1" d="M589.1,121.6c0,0.6-0.2,1.2-0.6,1.6c-0.4,0.4-0.9,0.7-1.6,0.9v0.1c0.8,0.1,1.4,0.3,1.8,0.7
			c0.4,0.4,0.6,0.9,0.6,1.6c0,1-0.3,1.7-1,2.2s-1.6,0.8-2.9,0.8c-1.1,0-2-0.2-2.8-0.5v-1.5c0.4,0.2,0.9,0.4,1.3,0.5
			c0.5,0.1,0.9,0.2,1.4,0.2c0.8,0,1.4-0.1,1.7-0.4c0.3-0.3,0.6-0.7,0.6-1.3c0-0.5-0.2-0.9-0.6-1.2s-1.1-0.4-2-0.4h-0.9v-1.4h0.9
			c1.6,0,2.4-0.6,2.4-1.7c0-0.4-0.1-0.8-0.4-1c-0.3-0.2-0.7-0.3-1.2-0.3c-0.4,0-0.7,0.1-1.1,0.2c-0.4,0.1-0.8,0.3-1.2,0.6l-0.8-1.1
			c0.9-0.7,2-1,3.2-1c1,0,1.8,0.2,2.4,0.6C588.9,120.3,589.1,120.9,589.1,121.6z"/>
		<path class="st1" d="M596,129.3l-0.3-1.1h-0.1c-0.4,0.5-0.7,0.8-1.1,0.9c-0.4,0.2-0.8,0.2-1.4,0.2c-0.7,0-1.3-0.2-1.7-0.6
			c-0.4-0.4-0.6-1-0.6-1.7c0-0.8,0.3-1.4,0.9-1.8c0.6-0.4,1.5-0.6,2.6-0.6h1.3v-0.4c0-0.5-0.1-0.8-0.3-1.1c-0.2-0.2-0.6-0.4-1-0.4
			s-0.8,0.1-1.1,0.2s-0.7,0.2-1,0.4l-0.5-1.1c0.4-0.2,0.9-0.4,1.3-0.5c0.5-0.1,0.9-0.2,1.4-0.2c1,0,1.7,0.2,2.2,0.6s0.7,1.1,0.7,2
			v5.1L596,129.3L596,129.3z M593.6,128.2c0.6,0,1.1-0.2,1.4-0.5c0.4-0.3,0.5-0.8,0.5-1.4v-0.7h-1c-0.8,0-1.3,0.2-1.7,0.4
			c-0.3,0.2-0.5,0.6-0.5,1c0,0.3,0.1,0.6,0.3,0.8C592.9,128.1,593.2,128.2,593.6,128.2z"/>
	</g>
</g>
<g>
	<path class="st3" d="M615,237.7h-75c-4.1,0-7.5-3.4-7.5-7.5v-30c0-4.1,3.4-7.5,7.5-7.5h75c4.1,0,7.5,3.4,7.5,7.5v30
		C622.5,234.4,619.1,237.7,615,237.7z"/>
	<g>
		<path class="st1" d="M557.8,209.3h3c1.4,0,2.4,0.2,3,0.6c0.6,0.4,0.9,1,0.9,1.9c0,0.6-0.2,1.1-0.5,1.5s-0.7,0.6-1.3,0.7v0.1
			c0.7,0.1,1.2,0.4,1.5,0.8c0.3,0.4,0.5,0.9,0.5,1.6c0,0.9-0.3,1.6-0.9,2.1c-0.6,0.5-1.5,0.8-2.6,0.8h-3.6L557.8,209.3L557.8,209.3z
			 M559.4,213.5h1.6c0.7,0,1.2-0.1,1.5-0.3s0.5-0.6,0.5-1.1s-0.2-0.8-0.5-1s-0.9-0.3-1.6-0.3h-1.4L559.4,213.5L559.4,213.5z
			 M559.4,214.8v3.2h1.7c0.7,0,1.2-0.1,1.5-0.4c0.3-0.3,0.5-0.7,0.5-1.2s-0.2-0.9-0.5-1.2s-0.9-0.4-1.6-0.4L559.4,214.8L559.4,214.8
			z"/>
		<path class="st1" d="M570.1,219.5c-1.2,0-2.1-0.3-2.8-1s-1-1.6-1-2.8s0.3-2.2,0.9-2.9s1.5-1.1,2.5-1.1s1.8,0.3,2.4,0.9
			c0.6,0.6,0.9,1.4,0.9,2.5v0.9h-5c0,0.7,0.2,1.3,0.6,1.7c0.4,0.4,0.9,0.6,1.6,0.6c0.4,0,0.9,0,1.2-0.1c0.4-0.1,0.8-0.2,1.2-0.4v1.3
			c-0.4,0.2-0.8,0.3-1.2,0.4C571.1,219.4,570.7,219.5,570.1,219.5z M569.9,212.9c-0.5,0-0.9,0.2-1.2,0.5s-0.5,0.8-0.5,1.4h3.4
			c0-0.6-0.2-1.1-0.5-1.4C570.8,213,570.4,212.9,569.9,212.9z"/>
		<path class="st1" d="M578.2,219.5c-1.2,0-2.1-0.3-2.8-1s-1-1.6-1-2.8s0.3-2.2,0.9-2.9s1.5-1.1,2.5-1.1s1.8,0.3,2.4,0.9
			c0.6,0.6,0.9,1.4,0.9,2.5v0.9h-5c0,0.7,0.2,1.3,0.6,1.7c0.4,0.4,0.9,0.6,1.6,0.6c0.4,0,0.9,0,1.2-0.1c0.4-0.1,0.8-0.2,1.2-0.4v1.3
			c-0.4,0.2-0.8,0.3-1.2,0.4C579.2,219.4,578.7,219.5,578.2,219.5z M577.9,212.9c-0.5,0-0.9,0.2-1.2,0.5s-0.5,0.8-0.5,1.4h3.4
			c0-0.6-0.2-1.1-0.5-1.4C578.8,213,578.4,212.9,577.9,212.9z"/>
		<path class="st1" d="M588.8,211.6c0,0.6-0.2,1.2-0.6,1.6c-0.4,0.4-0.9,0.7-1.6,0.9v0.1c0.8,0.1,1.4,0.3,1.8,0.7
			c0.4,0.4,0.6,0.9,0.6,1.6c0,1-0.3,1.7-1,2.2s-1.6,0.8-2.9,0.8c-1.1,0-2-0.2-2.8-0.5v-1.5c0.4,0.2,0.9,0.4,1.3,0.5
			c0.5,0.1,0.9,0.2,1.4,0.2c0.8,0,1.4-0.1,1.7-0.4s0.6-0.7,0.6-1.3c0-0.5-0.2-0.9-0.6-1.2s-1.1-0.4-2-0.4h-0.9v-1.4h0.9
			c1.6,0,2.4-0.6,2.4-1.7c0-0.4-0.1-0.8-0.4-1c-0.3-0.2-0.7-0.3-1.2-0.3c-0.4,0-0.7,0.1-1.1,0.2c-0.4,0.1-0.8,0.3-1.2,0.6l-0.8-1.1
			c0.9-0.7,2-1,3.2-1c1,0,1.8,0.2,2.4,0.6C588.6,210.3,588.8,210.9,588.8,211.6z"/>
		<path class="st1" d="M594.8,211.6c0.9,0,1.7,0.3,2.2,1s0.8,1.6,0.8,2.9c0,1.2-0.3,2.2-0.8,2.9s-1.3,1-2.2,1c-1,0-1.7-0.3-2.2-1
			h-0.1l-0.3,0.9H591v-10.6h1.6v2.5c0,0.2,0,0.5,0,0.8c0,0.4,0,0.6,0,0.7h0.1C593.1,212,593.8,211.6,594.8,211.6z M594.4,212.9
			c-0.6,0-1.1,0.2-1.4,0.6c-0.3,0.4-0.4,1-0.4,1.9v0.1c0,0.9,0.1,1.6,0.4,2c0.3,0.4,0.8,0.6,1.4,0.6c0.6,0,1-0.2,1.3-0.7
			s0.4-1.1,0.4-2C596.2,213.8,595.6,212.9,594.4,212.9z"/>
	</g>
</g>
<g>
	<g>
		<path class="st3" d="M501.9,261.6c0,1-0.3,1.7-1,2.2s-1.6,0.8-2.7,0.8c-1,0-1.8-0.2-2.4-0.5v-1.5c0.8,0.4,1.6,0.7,2.4,0.7
			c0.6,0,1.1-0.1,1.5-0.4s0.5-0.6,0.5-1.1c0-0.3-0.1-0.6-0.3-0.8c-0.2-0.2-0.6-0.6-1.2-0.9c-0.5-0.3-0.8-0.6-1.1-0.8
			c-0.2-0.3-0.4-0.5-0.5-0.8s-0.2-0.6-0.2-1c0-0.6,0.1-1.1,0.4-1.6s0.7-0.8,1.2-1s1.1-0.4,1.7-0.4c0.9,0,1.8,0.2,2.6,0.6l-0.6,1.3
			c-0.7-0.4-1.4-0.5-2-0.5c-0.5,0-0.9,0.1-1.2,0.4s-0.5,0.6-0.5,1c0,0.2,0,0.4,0.1,0.6c0.1,0.2,0.2,0.3,0.3,0.5
			c0.1,0.1,0.4,0.4,0.9,0.7c0.7,0.4,1.2,0.9,1.5,1.3C501.7,260.5,501.9,261,501.9,261.6z"/>
		<path class="st3" d="M508.5,264.5l-0.1-4.3v-0.5v-1.4c-0.1,0.3-0.2,0.6-0.4,0.9c-0.1,0.3-0.9,2-2.4,5.3h-1.8l-0.3-7.6h1.5l0.1,4.4
			c0,0.4,0,1-0.1,1.7l0,0c0.3-0.8,0.5-1.4,0.7-1.9l1.9-4.2h1.7l0.1,4.1v0.4v1.6l0,0c0.1-0.2,0.2-0.6,0.4-1.1
			c0.2-0.5,0.3-0.9,0.4-1.1c0.1-0.3,0.7-1.5,1.7-3.9h1.7l-3.5,7.6H508.5z"/>
		<path class="st3" d="M516,264.6c-0.6,0-1.2-0.2-1.5-0.7c-0.4-0.5-0.6-1.1-0.6-2c0-0.9,0.2-1.8,0.5-2.6c0.3-0.8,0.8-1.4,1.3-1.9
			c0.6-0.5,1.2-0.7,1.8-0.7c0.4,0,0.8,0.1,1.1,0.3c0.3,0.2,0.6,0.5,0.7,0.9h0.1l0.4-1.1h1.2l-1.5,7.7h-1.2l0.1-1.2l0,0
			C517.6,264.2,516.8,264.6,516,264.6z M516.6,263.3c0.4,0,0.7-0.2,1.1-0.5c0.4-0.4,0.7-0.8,0.9-1.4c0.2-0.6,0.3-1.2,0.3-1.9
			c0-0.4-0.1-0.7-0.3-1c-0.2-0.2-0.5-0.4-0.8-0.4c-0.4,0-0.8,0.2-1.1,0.5c-0.3,0.4-0.6,0.8-0.8,1.4c-0.2,0.6-0.3,1.2-0.3,1.9
			c0,0.5,0.1,0.8,0.3,1C516,263.2,516.2,263.3,516.6,263.3z"/>
		<path class="st3" d="M526.8,256.8c0.3,0,0.5,0,0.7,0.1l-0.3,1.5c-0.2-0.1-0.5-0.1-0.7-0.1c-0.6,0-1.1,0.3-1.5,0.8
			c-0.5,0.5-0.8,1.2-0.9,2l-0.7,3.4h-1.6l1.6-7.6h1.3l-0.1,1.4h0.1c0.4-0.5,0.8-0.9,1.1-1.2C526.1,256.8,526.4,256.8,526.8,256.8z"
			/>
		<path class="st3" d="M532.6,256.8c1,0,1.6,0.5,1.7,1.6h0.1c0.3-0.5,0.7-0.9,1.2-1.2c0.4-0.3,0.9-0.4,1.4-0.4
			c0.6,0,1.1,0.2,1.4,0.5c0.3,0.3,0.5,0.8,0.5,1.5c0,0.3,0,0.7-0.2,1.2l-1,4.5h-1.6l1-4.6c0.1-0.4,0.1-0.7,0.1-0.9
			c0-0.6-0.3-0.9-0.8-0.9s-1,0.3-1.4,0.8c-0.4,0.6-0.7,1.3-0.9,2.2l-0.7,3.3h-1.6l1-4.6c0.1-0.4,0.1-0.7,0.1-0.9
			c0-0.6-0.3-0.9-0.8-0.9s-1,0.3-1.4,0.9c-0.4,0.6-0.7,1.3-0.9,2.3l-0.7,3.2h-1.6l1.6-7.6h1.3l-0.1,1.4h0.1
			C530.9,257.3,531.7,256.8,532.6,256.8z"/>
	</g>
</g>
<path class="st1" d="M407.6,9.8h154.8c4.2,0,7.6,3.4,7.6,7.6v34.8c0,4.2-3.4,7.6-7.6,7.6H407.6c-4.2,0-7.6-3.4-7.6-7.6V17.4
	C400,13.2,403.4,9.8,407.6,9.8z"/>
<g>
	<g>
		<path d="M483.1,30.1c0.7,0,1.4,0.2,2,0.4c0.6,0.3,1.2,0.7,1.6,1.1c0.4,0.5,0.8,1.1,1,1.7c0.2,0.7,0.4,1.4,0.4,2.2
			c0,0.8-0.1,1.5-0.4,2.2c-0.3,0.7-0.6,1.3-1.1,1.7c-0.5,0.5-1,0.9-1.6,1.2c-0.6,0.3-1.3,0.4-2,0.4c-0.8,0-1.4-0.2-2-0.5
			s-1-0.8-1.4-1.3v1.6h-2.7V25.3h2.8v6.6c0.3-0.6,0.8-1,1.4-1.3C481.7,30.3,482.4,30.1,483.1,30.1z M482.5,38.6
			c0.4,0,0.8-0.1,1.1-0.2c0.3-0.2,0.6-0.3,0.8-0.6s0.4-0.6,0.6-1c0.2-0.3,0.2-0.8,0.2-1.2c0-0.8-0.2-1.5-0.7-2.1
			c-0.5-0.5-1.2-0.8-2-0.8c-0.4,0-0.8,0.1-1.1,0.2c-0.3,0.2-0.7,0.3-0.9,0.6c-0.3,0.3-0.5,0.6-0.6,0.9c-0.1,0.3-0.2,0.7-0.2,1.2
			s0.1,0.8,0.2,1.2c0.2,0.3,0.3,0.7,0.6,1c0.2,0.3,0.5,0.5,0.9,0.6C481.7,38.5,482.1,38.6,482.5,38.6z"/>
		<path d="M493.2,40.6l-4.6-10.3h3.2l2.7,6.8l0.2,1.1l0.2-1.1l2.7-6.8h3.1l-6.6,15.2h-3.2L493.2,40.6z"/>
		<path d="M510.2,40.5c-0.2,0.1-0.5,0.2-0.8,0.3c-0.3,0.1-0.6,0.2-1,0.2c-0.3,0.1-0.8,0.1-1.3,0.1c-2.7,0-4.1-1.4-4.1-4.1v-4.2h-1.8
			v-2.4h1.8v-2.9h2.8v2.8h3.6v2.4h-3.6v4.1c0,0.7,0.1,1.2,0.4,1.4c0.2,0.3,0.7,0.4,1.3,0.4c0.3,0,0.5,0,0.7-0.1
			c0.2-0.1,0.4-0.1,0.6-0.2c0.2-0.1,0.3-0.2,0.5-0.3L510.2,40.5z"/>
		<path d="M521.6,35.7c0,0.1,0,0.2,0,0.3s0,0.2,0,0.3c0,0.1,0,0.2,0,0.3h-7.9c0.3,1.4,1.1,2.1,2.7,2.1c1.1,0,1.9-0.4,2.3-1.2
			l2.5,1.1c-0.5,0.9-1.2,1.5-2,2c-0.8,0.4-1.8,0.6-2.8,0.6c-0.8,0-1.5-0.2-2.2-0.4s-1.2-0.7-1.7-1.2s-0.8-1.1-1.1-1.7
			c-0.3-0.7-0.4-1.4-0.4-2.2c0-0.8,0.2-1.5,0.4-2.2c0.3-0.7,0.7-1.2,1.2-1.7s1.1-0.8,1.8-1.1c0.7-0.3,1.4-0.4,2.3-0.4
			c0.8,0,1.5,0.1,2.1,0.4c0.7,0.3,1.2,0.7,1.6,1.1c0.5,0.5,0.8,1.1,1.1,1.7C521.4,34.1,521.6,34.9,521.6,35.7z M518.8,34.4
			c0-0.6-0.3-1-0.7-1.4c-0.4-0.3-1-0.5-1.7-0.5c-1.5,0-2.3,0.7-2.7,1.9H518.8z"/>
		<path d="M538.8,30.4l-3.7,10.5h-2.5l-2-6.4l-0.2-1l-0.2,1l-1.9,6.4h-2.6l-3.8-10.5h3l2,6.4l0.2,1.2l0.2-1.2l1.9-6.4h2.3l1.9,6.4
			l0.2,1.2l0.2-1.2l2-6.4H538.8z"/>
		<path d="M550.4,30.4v10.5h-2.7v-1.5c-0.3,0.6-0.8,1-1.4,1.3c-0.6,0.3-1.2,0.5-2,0.5c-0.7,0-1.4-0.1-2-0.4s-1.2-0.7-1.6-1.1
			c-0.4-0.5-0.8-1.1-1-1.7c-0.2-0.7-0.4-1.4-0.4-2.2c0-0.8,0.1-1.5,0.4-2.2c0.2-0.7,0.6-1.3,1-1.7c0.5-0.5,1-0.8,1.6-1.1
			c0.6-0.3,1.3-0.4,2.1-0.4s1.4,0.2,2,0.5s1,0.8,1.4,1.3v-1.7L550.4,30.4L550.4,30.4z M544.8,38.6c0.4,0,0.8-0.1,1.1-0.2
			c0.3-0.1,0.7-0.3,0.9-0.6c0.3-0.3,0.5-0.6,0.6-0.9c0.1-0.3,0.2-0.7,0.2-1.2s-0.1-0.8-0.2-1.2c-0.2-0.3-0.3-0.7-0.6-0.9
			c-0.3-0.3-0.5-0.5-0.9-0.6c-0.3-0.2-0.7-0.2-1.1-0.2c-0.4,0-0.8,0.1-1.1,0.2c-0.3,0.2-0.6,0.3-0.8,0.6c-0.2,0.3-0.4,0.6-0.5,0.9
			c-0.1,0.3-0.2,0.7-0.2,1.2c0,0.8,0.2,1.5,0.7,2.1C543.4,38.3,544,38.6,544.8,38.6z"/>
		<path d="M559.9,40.9l-2.4-3.3l-2.4,3.3h-3.3l4-5.3l-3.8-5.2h3.3l2.2,3.1l2.2-3.2h3.3l-3.8,5.2l4,5.3h-3.3V40.9z"/>
	</g>
	<g>
		<path class="st3" d="M441.2,33.7h-10.9l-5.4-9.4l5.4-9.5h10.9l5.5,9.4L441.2,33.7z M431.2,31.9h8.9l4.5-7.7l-4.4-7.7h-8.9
			l-4.4,7.7L431.2,31.9z"/>
		<path class="st3" d="M441.2,54.8h-10.9l-5.4-9.5l5.5-9.4h10.9l5.5,9.4L441.2,54.8z M431.2,53h8.9l4.5-7.7l-4.5-7.7h-8.9l-4.4,7.7
			L431.2,53z"/>
		<polygon class="st3" points="459.1,25.3 448.2,25.3 442.7,34.7 448.2,44.2 459.1,44.2 464.5,34.7 		"/>
		<polygon class="st3" points="423.1,25.3 412.2,25.3 406.7,34.7 412.2,44.2 423.1,44.2 428.5,34.7 		"/>
	</g>
</g>
<g>
	<g>
		<path class="st5" d="M102.3,171H70.8c-5,0-9-4.1-9-9V90.2h1.5v71.7c0,4.2,3.4,7.5,7.5,7.5h31.5V171z"/>
		<polygon class="st6" points="112.9,170.2 102.5,164.2 102.5,176.2 		"/>
	</g>
	<g>
		<polygon class="st6" points="288.3,170.2 277.9,164.2 277.9,176.2 		"/>
		<rect x="247.5" y="169.5" class="st5" width="30.4" height="1.5"/>
	</g>
	<g>
		<polygon class="st6" points="530,125.2 519.6,119.2 519.6,131.2 		"/>
		<rect x="505" y="124.7" class="st5" width="15.4" height="1.1"/>
	</g>
	<g>
		<polygon class="st6" points="530,215.2 519.6,209.2 519.6,221.2 		"/>
		<rect x="505" y="214.7" class="st5" width="15.4" height="1.1"/>
	</g>
	<g>
		<polygon class="st6" points="408.6,121.6 397,124.8 405.5,133.2 		"/>
		
			<rect x="384.7" y="135.3" transform="matrix(0.7071 -0.7071 0.7071 0.7071 19.4476 318.687)" class="st5" width="19.4" height="1.2"/>
	</g>
	<g>
		<polygon class="st6" points="648.6,142.7 637,139.6 645.5,131.1 		"/>
		
			<rect x="633.8" y="118.8" transform="matrix(0.7071 -0.7071 0.7071 0.7071 94.9467 486.2105)" class="st5" width="1.2" height="19.4"/>
	</g>
	<g>
		<polygon class="st6" points="408.6,218.8 397,215.7 405.5,207.2 		"/>
		
			<rect x="393.8" y="194.9" transform="matrix(0.7071 -0.7071 0.7071 0.7071 -29.1541 338.8015)" class="st5" width="1.2" height="19.4"/>
	</g>
	<g>
		<polygon class="st6" points="648.6,197.7 637,200.8 645.5,209.3 		"/>
		
			<rect x="624.7" y="211.3" transform="matrix(0.7071 -0.7071 0.7071 0.7071 35.9658 510.6167)" class="st5" width="19.4" height="1.2"/>
	</g>
	<g>
		<polygon class="st6" points="216.5,205.2 210.5,215.6 222.5,215.6 		"/>
		<path class="st5" d="M714.5,283.5h-490c-4.8,0-8.7-3.9-8.7-8.7v-59.1h1.5v59.1c0,4,3.2,7.2,7.2,7.2h490c4,0,7.2-3.2,7.2-7.2v-75
			h1.5v75C723.3,279.6,719.3,283.5,714.5,283.5z"/>
	</g>
</g>
</svg>
