<?xml version="1.0" encoding="utf-8"?>
<!-- Generator: Adobe Illustrator 25.2.1, SVG Export Plug-In . SVG Version: 6.00 Build 0)  -->
<svg version="1.1" id="Warstwa_1" xmlns="http://www.w3.org/2000/svg" xmlns:xlink="http://www.w3.org/1999/xlink" x="0px" y="0px"
	 viewBox="0 0 12 12" style="enable-background:new 0 0 12 12;" xml:space="preserve">
<style type="text/css">
	.st0{fill:#666666;}
</style>
<path id="times-solid" class="st0" d="M8.3,6l3.4-3.4c0.4-0.4,0.4-1.1,0-1.5l-0.8-0.8c-0.4-0.4-1.1-0.4-1.5,0L6,3.7L2.6,0.3
	c-0.4-0.4-1.1-0.4-1.5,0L0.3,1.1c-0.4,0.4-0.4,1.1,0,1.5L3.7,6L0.3,9.4c-0.4,0.4-0.4,1.1,0,1.5l0.8,0.8c0.4,0.4,1.1,0.4,1.5,0L6,8.3
	l3.4,3.4c0.4,0.4,1.1,0.4,1.5,0l0.8-0.8c0.4-0.4,0.4-1.1,0-1.5L8.3,6z"/>
</svg>
