<svg xmlns="http://www.w3.org/2000/svg" width="12" height="12" viewBox="0 0 12 12">
  <path id="times-solid" d="M8.275,86l3.411-3.411a1.072,1.072,0,0,0,0-1.516l-.758-.758a1.072,1.072,0,0,0-1.516,0L6,83.725,2.589,80.314a1.072,1.072,0,0,0-1.516,0l-.758.758a1.072,1.072,0,0,0,0,1.516L3.725,86,.314,89.411a1.072,1.072,0,0,0,0,1.516l.758.758a1.072,1.072,0,0,0,1.516,0L6,88.275l3.411,3.411a1.072,1.072,0,0,0,1.516,0l.758-.758a1.072,1.072,0,0,0,0-1.516Z" transform="translate(0 -80)" fill="#334ac0"/>
</svg>
