<?xml version="1.0" encoding="utf-8"?>
<!-- Generator: Adobe Illustrator 25.2.1, SVG Export Plug-In . SVG Version: 6.00 Build 0)  -->
<svg version="1.1" id="Warstwa_1" xmlns="http://www.w3.org/2000/svg" xmlns:xlink="http://www.w3.org/1999/xlink" x="0px" y="0px"
	 viewBox="0 0 24 24" style="enable-background:new 0 0 24 24;" xml:space="preserve">
<style type="text/css">
	.st0{fill:#FAB90F;}
</style>
<path id="facebook-square-brands" class="st0" d="M21.4,0H2.6C1.2,0,0,1.2,0,2.6v18.9C0,22.8,1.2,24,2.6,24h7.4v-8.2H6.5V12h3.4V9.1
	c0-3.3,2-5.2,5-5.2c1,0,2,0.1,3,0.3v3.3h-1.7c-1.1-0.1-2,0.6-2.2,1.7c0,0.1,0,0.3,0,0.4V12h3.7l-0.6,3.8h-3.1V24h7.4
	c1.4,0,2.6-1.1,2.6-2.6c0,0,0,0,0,0V2.6C24,1.2,22.8,0,21.4,0z"/>
</svg>
