<svg id="github-24px" xmlns="http://www.w3.org/2000/svg" width="24" height="24" viewBox="0 0 24 24">
  <path id="Path_141" data-name="Path 141" d="M0,0H24V24H0ZM0,0H24V24H0ZM0,0H24V24H0ZM0,0H24V24H0Z" fill="none"/>
  <path id="github-brands" d="M7.024,24.487c0,.085-.1.152-.22.152-.14.013-.237-.055-.237-.152s.1-.152.22-.152S7.024,24.389,7.024,24.487ZM5.707,24.3c-.03.085.055.182.182.207a.2.2,0,0,0,.263-.085c.025-.085-.055-.182-.182-.22a.217.217,0,0,0-.263.1Zm1.871-.072c-.123.03-.207.11-.195.207s.123.14.25.11.207-.11.195-.195S7.7,24.211,7.579,24.224ZM10.365,8A10.152,10.152,0,0,0,0,18.331,10.615,10.615,0,0,0,7.176,28.458c.542.1.732-.237.732-.512s-.013-1.71-.013-2.6c0,0-2.964.635-3.586-1.262,0,0-.483-1.232-1.177-1.55,0,0-.97-.665.068-.652a2.235,2.235,0,0,1,1.634,1.092,2.238,2.238,0,0,0,3.086.885A2.353,2.353,0,0,1,8.6,22.433c-2.367-.263-4.755-.605-4.755-4.678a3.209,3.209,0,0,1,1-2.494,4,4,0,0,1,.11-2.875c.885-.275,2.921,1.143,2.921,1.143a10,10,0,0,1,5.318,0s2.036-1.423,2.921-1.143a4,4,0,0,1,.11,2.875,3.291,3.291,0,0,1,1.092,2.494c0,4.086-2.494,4.412-4.86,4.678a2.5,2.5,0,0,1,.72,1.965c0,1.427-.013,3.192-.013,3.54,0,.275.195.61.732.512A10.517,10.517,0,0,0,21,18.331,10.381,10.381,0,0,0,10.365,8ZM4.115,22.6c-.055.042-.042.14.03.22s.165.1.22.042.042-.14-.03-.22S4.17,22.548,4.115,22.6Zm-.457-.343c-.03.055.013.123.1.165a.126.126,0,0,0,.182-.03c.03-.055-.013-.123-.1-.165C3.755,22.2,3.688,22.217,3.658,22.26ZM5.03,23.767c-.068.055-.042.182.055.262.1.1.22.11.275.042s.03-.182-.055-.262C5.212,23.712,5.085,23.7,5.03,23.767Zm-.483-.622c-.068.042-.068.152,0,.25s.182.14.237.1a.193.193,0,0,0,0-.263c-.059-.1-.169-.14-.237-.085Z" transform="translate(1.5 -6.238)" fill="rgba(0,0,0,0.87)"/>
</svg>
