<?xml version="1.0" encoding="utf-8"?>
<!-- Generator: Adobe Illustrator 25.2.1, SVG Export Plug-In . SVG Version: 6.00 Build 0)  -->
<svg version="1.1" id="Warstwa_1" xmlns="http://www.w3.org/2000/svg" xmlns:xlink="http://www.w3.org/1999/xlink" x="0px" y="0px"
	 viewBox="0 0 24 24" style="enable-background:new 0 0 24 24;" xml:space="preserve">
<style type="text/css">
	.st0{fill:#FAB90F;}
</style>
<path id="linkedin-brands" class="st0" d="M22.3,0H1.7C0.8,0,0,0.8,0,1.7v20.5C0,23.2,0.8,24,1.7,24h20.6c1,0,1.7-0.8,1.7-1.7V1.7
	C24,0.8,23.2,0,22.3,0z M7.3,20.6H3.7V9.1h3.6L7.3,20.6L7.3,20.6z M5.5,7.6c-1.1,0-2.1-0.9-2.1-2.1s0.9-2.1,2.1-2.1s2.1,0.9,2.1,2.1
	c0,0,0,0,0,0C7.5,6.6,6.6,7.6,5.5,7.6z M20.6,20.6H17V15c0-1.3,0-3-1.8-3c-1.9,0-2.1,1.4-2.1,2.9v5.7H9.5V9.1h3.4v1.6h0
	c0.7-1.2,2-1.9,3.4-1.8c3.6,0,4.3,2.4,4.3,5.5L20.6,20.6z"/>
</svg>
