<?xml version="1.0" encoding="utf-8"?>
<!-- Generator: Adobe Illustrator 25.2.0, SVG Export Plug-In . SVG Version: 6.00 Build 0)  -->
<svg version="1.1" id="Warstwa_1" xmlns="http://www.w3.org/2000/svg" xmlns:xlink="http://www.w3.org/1999/xlink" x="0px" y="0px"
	 viewBox="0 0 408.2 104.9" style="enable-background:new 0 0 408.2 104.9;" xml:space="preserve">
<style type="text/css">
	.st0{fill:#FFFFFF;}
</style>
<g>
	<g>
		<path d="M199.3,40.4c1.9,0,3.7,0.4,5.3,1.1c1.6,0.7,3,1.7,4.1,2.9c1.1,1.3,2,2.8,2.7,4.5c0.6,1.7,1,3.6,1,5.7c0,2.1-0.3,4-1,5.8
			s-1.6,3.3-2.8,4.5c-1.2,1.3-2.6,2.3-4.2,3c-1.6,0.7-3.4,1.1-5.3,1.1c-2,0-3.7-0.4-5.2-1.2c-1.5-0.8-2.7-2-3.6-3.5v4.1h-7.1V27.9
			h7.3V45c0.9-1.5,2.2-2.6,3.6-3.4C195.7,40.8,197.4,40.4,199.3,40.4z M197.7,62.4c1.1,0,2-0.2,2.9-0.6c0.9-0.4,1.6-0.9,2.2-1.6
			c0.6-0.7,1.1-1.5,1.5-2.5c0.4-0.9,0.5-2,0.5-3.1c0-2.2-0.6-4-1.9-5.4c-1.3-1.4-3-2.1-5.1-2.1c-1.1,0-2,0.2-2.9,0.5
			c-0.9,0.4-1.7,0.9-2.4,1.6c-0.7,0.7-1.2,1.5-1.6,2.4c-0.4,0.9-0.6,1.9-0.6,3s0.2,2.1,0.5,3.1c0.4,0.9,0.9,1.8,1.5,2.5
			s1.4,1.2,2.3,1.6C195.6,62.2,196.6,62.4,197.7,62.4z"/>
		<path d="M225.4,67.7L213.5,41h8.4l7,17.7l0.4,2.9l0.5-2.9l6.9-17.7h8.1l-16.9,39.3h-8.4L225.4,67.7z"/>
		<path d="M269.5,67.3c-0.6,0.3-1.3,0.6-2.1,0.8c-0.7,0.3-1.5,0.5-2.5,0.6c-0.9,0.2-2,0.2-3.3,0.2c-7.1,0-10.6-3.6-10.6-10.7V47.3
			h-4.8V41h4.8v-7.4h7.3V41h9.3v6.3h-9.3v10.6c0,1.7,0.3,3,1,3.6c0.6,0.7,1.7,1,3.3,1c0.7,0,1.3-0.1,1.9-0.2
			c0.6-0.2,1.1-0.3,1.5-0.5c0.5-0.2,0.9-0.4,1.3-0.7L269.5,67.3z"/>
		<path d="M299.2,54.9c0,0.3,0,0.6,0,0.8c0,0.3,0,0.5,0,0.7c0,0.3,0,0.5-0.1,0.7h-20.5c0.7,3.6,2.9,5.4,6.9,5.4c2.9,0,4.9-1.1,6-3.2
			l6.5,2.9c-1.4,2.3-3.1,4-5.2,5.1s-4.6,1.6-7.4,1.6c-2.1,0-4-0.4-5.7-1.1s-3.2-1.7-4.5-3c-1.3-1.3-2.2-2.8-2.9-4.5
			c-0.7-1.7-1-3.6-1-5.7c0-2.1,0.4-4,1.1-5.7s1.7-3.2,3-4.5s2.8-2.2,4.6-2.9s3.7-1.1,5.9-1.1c2,0,3.9,0.3,5.5,1
			c1.7,0.7,3.1,1.7,4.2,2.9c1.2,1.3,2.1,2.8,2.8,4.5C298.8,50.8,299.2,52.7,299.2,54.9z M292,51.6c-0.1-1.5-0.8-2.7-1.9-3.6
			c-1.1-0.9-2.6-1.4-4.5-1.4c-3.8,0-6.1,1.7-7,5H292z"/>
		<path d="M343.8,41l-9.5,27.4h-6.5l-5.3-16.7l-0.4-2.5l-0.4,2.5l-4.9,16.7h-6.7L300.3,41h7.7l5.1,16.7l0.5,3.2l0.5-3.2L319,41h6.1
			l5,16.7l0.4,3.2l0.5-3.2l5.1-16.7H343.8z"/>
		<path d="M374.1,41v27.4H367v-4c-0.9,1.5-2.2,2.7-3.6,3.5c-1.5,0.8-3.2,1.2-5.2,1.2c-1.9,0-3.7-0.3-5.3-1c-1.6-0.7-3-1.7-4.1-2.9
			c-1.1-1.3-2-2.8-2.7-4.5c-0.6-1.8-1-3.7-1-5.8s0.3-4,1-5.8c0.6-1.8,1.5-3.3,2.7-4.5c1.2-1.3,2.5-2.2,4.2-2.9
			c1.6-0.7,3.4-1.1,5.4-1.1s3.7,0.4,5.1,1.2c1.5,0.8,2.6,2,3.6,3.5V41H374.1z M359.6,62.4c1.1,0,2-0.2,2.9-0.6
			c0.9-0.4,1.7-0.9,2.3-1.6c0.7-0.7,1.2-1.5,1.6-2.4s0.6-1.9,0.6-3s-0.2-2.1-0.5-3c-0.4-0.9-0.9-1.7-1.5-2.4
			c-0.7-0.7-1.4-1.2-2.3-1.6c-0.9-0.4-1.9-0.6-2.9-0.6s-2,0.2-2.9,0.6c-0.9,0.4-1.6,0.9-2.2,1.6c-0.6,0.7-1.1,1.5-1.4,2.4
			s-0.5,1.9-0.5,3c0,2.2,0.6,4,1.9,5.5C355.8,61.7,357.5,62.4,359.6,62.4z"/>
		<path d="M398.7,68.4l-6.2-8.6l-6.2,8.6h-8.7L388,54.6L378.1,41h8.7l5.7,8.2l5.7-8.2h8.7L397,54.6l10.5,13.8H398.7z"/>
	</g>
	<g>
		<path class="st0" d="M90.3,49.6H61.9L47.8,25.1L61.9,0.5h28.3L104.4,25L90.3,49.6z M64.5,45.1h23.1l11.6-20L87.7,5H64.5L53,25.1
			L64.5,45.1z"/>
		<path class="st0" d="M90.3,104.4H61.9L47.8,79.8L62,55.3h28.3l14.2,24.5L90.3,104.4z M64.5,99.8h23.1l11.6-20l-11.6-20H64.5
			L53,79.8L64.5,99.8z"/>
		<polygon class="st0" points="136.8,27.9 108.5,27.9 94.3,52.4 108.5,77 136.8,77 151,52.4 		"/>
		<polygon class="st0" points="43.3,27.9 15,27.9 0.8,52.4 15,77 43.3,77 57.5,52.4 		"/>
	</g>
</g>
</svg>
