<?xml version="1.0" encoding="utf-8"?>
<!-- Generator: Adobe Illustrator 25.2.1, SVG Export Plug-In . SVG Version: 6.00 Build 0)  -->
<svg version="1.1" id="Warstwa_1" xmlns="http://www.w3.org/2000/svg" xmlns:xlink="http://www.w3.org/1999/xlink" x="0px" y="0px"
	 viewBox="0 0 24 24" style="enable-background:new 0 0 24 24;" xml:space="preserve">
<style type="text/css">
	.st0{fill:#FAB90F;}
</style>
<path id="twitter-square-brands" class="st0" d="M21.4,0H2.6C1.2,0,0,1.2,0,2.6v18.9C0,22.8,1.2,24,2.6,24h18.9
	c1.4,0,2.6-1.2,2.6-2.6V2.6C24,1.2,22.8,0,21.4,0z M18.8,8.5c0,0.2,0,0.3,0,0.5c0,5.5-4.4,10-9.9,10c0,0-0.1,0-0.1,0
	c-1.9,0-3.8-0.5-5.4-1.6c0.3,0,0.6,0,0.8,0c1.6,0,3.1-0.5,4.4-1.5c-1.5,0-2.8-1-3.3-2.4c0.5,0.1,1.1,0.1,1.6-0.1
	c-1.6-0.3-2.8-1.8-2.8-3.5v0c0.5,0.3,1,0.4,1.6,0.4c-1-0.7-1.6-1.7-1.6-2.9c0-0.6,0.2-1.2,0.5-1.8C6.4,7.9,9,9.2,11.9,9.4
	c-0.4-1.9,0.7-3.8,2.6-4.2c1.2-0.3,2.5,0.1,3.4,1c0.8-0.2,1.5-0.4,2.2-0.8c-0.3,0.8-0.8,1.5-1.5,1.9c0.7-0.1,1.4-0.3,2-0.5
	C20.1,7.4,19.5,8,18.8,8.5z"/>
</svg>
